{
  "episode_id": "PD-2026-008-carpenter",
  "render": "artifact://episodes/PD-2026-008-carpenter/08_edit/carpenter_review_v001.mp4",
  "media_render": "H:\\pd-media\\episodes\\PD-2026-008-carpenter\\08_edit\\carpenter_review_v001.mp4",
  "sha256": "61b1bb0b4846a019f767ccdbc4992fcecee1ccbebf1502dacebe090d3c2ab8a7",
  "duration_seconds": 678.0,
  "target_duration_seconds": 678.0,
  "video": "Remotion CarpenterPremium, synthetic-symbolic visuals, 1920x1080 H.264",
  "audio": "ElevenLabs narration slowed to ~669s, library music, ambience, SFX",
  "captions": "burned SRT from locked script text, scaled to slowed narration",
  "paid_generation_performed": true,
  "estimated_elevenlabs_cost_usd": 2.82,
  "external_upload_performed": false,
  "publish_performed": false,
  "synthetic_content_disclosure_required": true,
  "accuracy_checks": {
    "vote_5_4": true,
    "no_incorrect_vote_count": true,
    "points_12898": true,
    "symbolic_reconstruction_label": true
  },
  "audio_probe_tail": "0:02:15.10 bitrate=N/A speed=87.2x elapsed=0:00:01.54    \nframe= 5262 fps=2560 q=-0.0 size=N/A time=00:02:55.40 bitrate=N/A speed=85.3x elapsed=0:00:02.05    \nframe= 7020 fps=2721 q=-0.0 size=N/A time=00:03:54.00 bitrate=N/A speed=90.7x elapsed=0:00:02.57    \nframe= 8126 fps=2633 q=-0.0 size=N/A time=00:04:30.86 bitrate=N/A speed=87.8x elapsed=0:00:03.08    \nframe= 9395 fps=2602 q=-0.0 size=N/A time=00:05:13.13 bitrate=N/A speed=86.7x elapsed=0:00:03.61    \nframe=11053 fps=2686 q=-0.0 size=N/A time=00:06:08.43 bitrate=N/A speed=89.5x elapsed=0:00:04.11    \nframe=12834 fps=2767 q=-0.0 size=N/A time=00:07:07.80 bitrate=N/A speed=92.2x elapsed=0:00:04.63    \nframe=14525 fps=2822 q=-0.0 size=N/A time=00:08:04.16 bitrate=N/A speed=94.1x elapsed=0:00:05.14    \nframe=16347 fps=2884 q=-0.0 size=N/A time=00:09:04.90 bitrate=N/A speed=96.1x elapsed=0:00:05.66    \nframe=18115 fps=2928 q=-0.0 size=N/A time=00:10:03.76 bitrate=N/A speed=97.6x elapsed=0:00:06.18    \nframe=19229 fps=2871 q=-0.0 size=N/A time=00:10:40.96 bitrate=N/A speed=95.7x elapsed=0:00:06.69    \n[Parsed_volumedetect_0 @ 000002047d11ddc0] n_samples: 29900800\n[Parsed_volumedetect_0 @ 000002047d11ddc0] mean_volume: -22.4 dB\n[Parsed_volumedetect_0 @ 000002047d11ddc0] max_volume: -2.0 dB\n[Parsed_volumedetect_0 @ 000002047d11ddc0] histogram_2db: 22\n[Parsed_volumedetect_0 @ 000002047d11ddc0] histogram_3db: 71\n[Parsed_volumedetect_0 @ 000002047d11ddc0] histogram_4db: 271\n[Parsed_volumedetect_0 @ 000002047d11ddc0] histogram_5db: 896\n[Parsed_volumedetect_0 @ 000002047d11ddc0] histogram_6db: 2904\n[Parsed_volumedetect_0 @ 000002047d11ddc0] histogram_7db: 7132\n[Parsed_volumedetect_0 @ 000002047d11ddc0] histogram_8db: 16948\n[Parsed_volumedetect_0 @ 000002047d11ddc0] histogram_9db: 36910\n[out#0/null @ 000002047b09ea00] video:8422KiB audio:58400KiB subtitle:0KiB other streams:0KiB global headers:0KiB muxing overhead: unknown\nframe=20340 fps=2817 q=-0.0 Lsize=N/A time=00:11:18.00 bitrate=N/A speed=93.9x elapsed=0:00:07.22    \n",
  "known_limitations": [
    "Only the first 8 local SDXL candidates completed before A1111 became occupied by another local generation job; the cut now uses the two accepted map candidates plus Remotion-built device graphics.",
    "Final publish master should continue SDXL candidate generation and visual selection once the shared local A1111 queue is free.",
    "Captions are chunk-time scaled, not forced word-aligned."
  ]
}
